<?xml version="1.0" encoding="utf-8" standalone="no"?>
<!DOCTYPE svg PUBLIC "-//W3C//DTD SVG 1.1//EN"
  "http://www.w3.org/Graphics/SVG/1.1/DTD/svg11.dtd">
<svg height="720pt" version="1.1" viewBox="0 0 1440 720" width="1440pt" xmlns="http://www.w3.org/2000/svg" xmlns:xlink="http://www.w3.org/1999/xlink">
 <metadata>
  <rdf:RDF xmlns:cc="http://creativecommons.org/ns#" xmlns:dc="http://purl.org/dc/elements/1.1/" xmlns:rdf="http://www.w3.org/1999/02/22-rdf-syntax-ns#">
   <cc:Work>
    <dc:type rdf:resource="http://purl.org/dc/dcmitype/StillImage"/>
    <dc:date>2022-12-17T12:16:41.185501</dc:date>
    <dc:format>image/svg+xml</dc:format>
    <dc:creator>
     <cc:Agent>
      <dc:title>Matplotlib v3.4.3, https://matplotlib.org/</dc:title>
     </cc:Agent>
    </dc:creator>
   </cc:Work>
  </rdf:RDF>
 </metadata>
 <defs>
  <style type="text/css">*{stroke-linecap:butt;stroke-linejoin:round;}</style>
 </defs>
 <g id="figure_1">
  <g id="patch_1">
   <path d="M 0 720 
L 1440 720 
L 1440 0 
L 0 0 
z
" style="fill:#ffffff;"/>
  </g>
  <g id="axes_1">
   <g id="patch_2">
    <path d="M 180 640.8 
L 1296 640.8 
L 1296 86.4 
L 180 86.4 
z
" style="fill:#e5e5e5;"/>
   </g>
   <g id="matplotlib.axis_1">
    <g id="xtick_1">
     <g id="line2d_1">
      <path clip-path="url(#pae002810cb)" d="M 230.727273 640.8 
L 230.727273 86.4 
" style="fill:none;stroke:#ffffff;stroke-linecap:square;stroke-width:0.8;"/>
     </g>
     <g id="line2d_2">
      <defs>
       <path d="M 0 0 
L 0 3.5 
" id="me7128b29a1" style="stroke:#555555;stroke-width:0.8;"/>
      </defs>
      <g>
       <use style="fill:#555555;stroke:#555555;stroke-width:0.8;" x="230.727273" xlink:href="#me7128b29a1" y="640.8"/>
      </g>
     </g>
     <g id="text_1">
      <!-- 0 -->
      <g style="fill:#555555;" transform="translate(227.546023 655.398438)scale(0.1 -0.1)">
       <defs>
        <path d="M 2034 4250 
Q 1547 4250 1301 3770 
Q 1056 3291 1056 2328 
Q 1056 1369 1301 889 
Q 1547 409 2034 409 
Q 2525 409 2770 889 
Q 3016 1369 3016 2328 
Q 3016 3291 2770 3770 
Q 2525 4250 2034 4250 
z
M 2034 4750 
Q 2819 4750 3233 4129 
Q 3647 3509 3647 2328 
Q 3647 1150 3233 529 
Q 2819 -91 2034 -91 
Q 1250 -91 836 529 
Q 422 1150 422 2328 
Q 422 3509 836 4129 
Q 1250 4750 2034 4750 
z
" id="DejaVuSans-30" transform="scale(0.015625)"/>
       </defs>
       <use xlink:href="#DejaVuSans-30"/>
      </g>
     </g>
    </g>
    <g id="xtick_2">
     <g id="line2d_3">
      <path clip-path="url(#pae002810cb)" d="M 417.224599 640.8 
L 417.224599 86.4 
" style="fill:none;stroke:#ffffff;stroke-linecap:square;stroke-width:0.8;"/>
     </g>
     <g id="line2d_4">
      <g>
       <use style="fill:#555555;stroke:#555555;stroke-width:0.8;" x="417.224599" xlink:href="#me7128b29a1" y="640.8"/>
      </g>
     </g>
     <g id="text_2">
      <!-- 50 -->
      <g style="fill:#555555;" transform="translate(410.862099 655.398438)scale(0.1 -0.1)">
       <defs>
        <path d="M 691 4666 
L 3169 4666 
L 3169 4134 
L 1269 4134 
L 1269 2991 
Q 1406 3038 1543 3061 
Q 1681 3084 1819 3084 
Q 2600 3084 3056 2656 
Q 3513 2228 3513 1497 
Q 3513 744 3044 326 
Q 2575 -91 1722 -91 
Q 1428 -91 1123 -41 
Q 819 9 494 109 
L 494 744 
Q 775 591 1075 516 
Q 1375 441 1709 441 
Q 2250 441 2565 725 
Q 2881 1009 2881 1497 
Q 2881 1984 2565 2268 
Q 2250 2553 1709 2553 
Q 1456 2553 1204 2497 
Q 953 2441 691 2322 
L 691 4666 
z
" id="DejaVuSans-35" transform="scale(0.015625)"/>
       </defs>
       <use xlink:href="#DejaVuSans-35"/>
       <use x="63.623047" xlink:href="#DejaVuSans-30"/>
      </g>
     </g>
    </g>
    <g id="xtick_3">
     <g id="line2d_5">
      <path clip-path="url(#pae002810cb)" d="M 603.721925 640.8 
L 603.721925 86.4 
" style="fill:none;stroke:#ffffff;stroke-linecap:square;stroke-width:0.8;"/>
     </g>
     <g id="line2d_6">
      <g>
       <use style="fill:#555555;stroke:#555555;stroke-width:0.8;" x="603.721925" xlink:href="#me7128b29a1" y="640.8"/>
      </g>
     </g>
     <g id="text_3">
      <!-- 100 -->
      <g style="fill:#555555;" transform="translate(594.178175 655.398438)scale(0.1 -0.1)">
       <defs>
        <path d="M 794 531 
L 1825 531 
L 1825 4091 
L 703 3866 
L 703 4441 
L 1819 4666 
L 2450 4666 
L 2450 531 
L 3481 531 
L 3481 0 
L 794 0 
L 794 531 
z
" id="DejaVuSans-31" transform="scale(0.015625)"/>
       </defs>
       <use xlink:href="#DejaVuSans-31"/>
       <use x="63.623047" xlink:href="#DejaVuSans-30"/>
       <use x="127.246094" xlink:href="#DejaVuSans-30"/>
      </g>
     </g>
    </g>
    <g id="xtick_4">
     <g id="line2d_7">
      <path clip-path="url(#pae002810cb)" d="M 790.219251 640.8 
L 790.219251 86.4 
" style="fill:none;stroke:#ffffff;stroke-linecap:square;stroke-width:0.8;"/>
     </g>
     <g id="line2d_8">
      <g>
       <use style="fill:#555555;stroke:#555555;stroke-width:0.8;" x="790.219251" xlink:href="#me7128b29a1" y="640.8"/>
      </g>
     </g>
     <g id="text_4">
      <!-- 150 -->
      <g style="fill:#555555;" transform="translate(780.675501 655.398438)scale(0.1 -0.1)">
       <use xlink:href="#DejaVuSans-31"/>
       <use x="63.623047" xlink:href="#DejaVuSans-35"/>
       <use x="127.246094" xlink:href="#DejaVuSans-30"/>
      </g>
     </g>
    </g>
    <g id="xtick_5">
     <g id="line2d_9">
      <path clip-path="url(#pae002810cb)" d="M 976.716578 640.8 
L 976.716578 86.4 
" style="fill:none;stroke:#ffffff;stroke-linecap:square;stroke-width:0.8;"/>
     </g>
     <g id="line2d_10">
      <g>
       <use style="fill:#555555;stroke:#555555;stroke-width:0.8;" x="976.716578" xlink:href="#me7128b29a1" y="640.8"/>
      </g>
     </g>
     <g id="text_5">
      <!-- 200 -->
      <g style="fill:#555555;" transform="translate(967.172828 655.398438)scale(0.1 -0.1)">
       <defs>
        <path d="M 1228 531 
L 3431 531 
L 3431 0 
L 469 0 
L 469 531 
Q 828 903 1448 1529 
Q 2069 2156 2228 2338 
Q 2531 2678 2651 2914 
Q 2772 3150 2772 3378 
Q 2772 3750 2511 3984 
Q 2250 4219 1831 4219 
Q 1534 4219 1204 4116 
Q 875 4013 500 3803 
L 500 4441 
Q 881 4594 1212 4672 
Q 1544 4750 1819 4750 
Q 2544 4750 2975 4387 
Q 3406 4025 3406 3419 
Q 3406 3131 3298 2873 
Q 3191 2616 2906 2266 
Q 2828 2175 2409 1742 
Q 1991 1309 1228 531 
z
" id="DejaVuSans-32" transform="scale(0.015625)"/>
       </defs>
       <use xlink:href="#DejaVuSans-32"/>
       <use x="63.623047" xlink:href="#DejaVuSans-30"/>
       <use x="127.246094" xlink:href="#DejaVuSans-30"/>
      </g>
     </g>
    </g>
    <g id="xtick_6">
     <g id="line2d_11">
      <path clip-path="url(#pae002810cb)" d="M 1163.213904 640.8 
L 1163.213904 86.4 
" style="fill:none;stroke:#ffffff;stroke-linecap:square;stroke-width:0.8;"/>
     </g>
     <g id="line2d_12">
      <g>
       <use style="fill:#555555;stroke:#555555;stroke-width:0.8;" x="1163.213904" xlink:href="#me7128b29a1" y="640.8"/>
      </g>
     </g>
     <g id="text_6">
      <!-- 250 -->
      <g style="fill:#555555;" transform="translate(1153.670154 655.398438)scale(0.1 -0.1)">
       <use xlink:href="#DejaVuSans-32"/>
       <use x="63.623047" xlink:href="#DejaVuSans-35"/>
       <use x="127.246094" xlink:href="#DejaVuSans-30"/>
      </g>
     </g>
    </g>
    <g id="text_7">
     <!-- Measurement -->
     <g style="fill:#555555;" transform="translate(696.811875 670.59625)scale(0.12 -0.12)">
      <defs>
       <path d="M 628 4666 
L 1569 4666 
L 2759 1491 
L 3956 4666 
L 4897 4666 
L 4897 0 
L 4281 0 
L 4281 4097 
L 3078 897 
L 2444 897 
L 1241 4097 
L 1241 0 
L 628 0 
L 628 4666 
z
" id="DejaVuSans-4d" transform="scale(0.015625)"/>
       <path d="M 3597 1894 
L 3597 1613 
L 953 1613 
Q 991 1019 1311 708 
Q 1631 397 2203 397 
Q 2534 397 2845 478 
Q 3156 559 3463 722 
L 3463 178 
Q 3153 47 2828 -22 
Q 2503 -91 2169 -91 
Q 1331 -91 842 396 
Q 353 884 353 1716 
Q 353 2575 817 3079 
Q 1281 3584 2069 3584 
Q 2775 3584 3186 3129 
Q 3597 2675 3597 1894 
z
M 3022 2063 
Q 3016 2534 2758 2815 
Q 2500 3097 2075 3097 
Q 1594 3097 1305 2825 
Q 1016 2553 972 2059 
L 3022 2063 
z
" id="DejaVuSans-65" transform="scale(0.015625)"/>
       <path d="M 2194 1759 
Q 1497 1759 1228 1600 
Q 959 1441 959 1056 
Q 959 750 1161 570 
Q 1363 391 1709 391 
Q 2188 391 2477 730 
Q 2766 1069 2766 1631 
L 2766 1759 
L 2194 1759 
z
M 3341 1997 
L 3341 0 
L 2766 0 
L 2766 531 
Q 2569 213 2275 61 
Q 1981 -91 1556 -91 
Q 1019 -91 701 211 
Q 384 513 384 1019 
Q 384 1609 779 1909 
Q 1175 2209 1959 2209 
L 2766 2209 
L 2766 2266 
Q 2766 2663 2505 2880 
Q 2244 3097 1772 3097 
Q 1472 3097 1187 3025 
Q 903 2953 641 2809 
L 641 3341 
Q 956 3463 1253 3523 
Q 1550 3584 1831 3584 
Q 2591 3584 2966 3190 
Q 3341 2797 3341 1997 
z
" id="DejaVuSans-61" transform="scale(0.015625)"/>
       <path d="M 2834 3397 
L 2834 2853 
Q 2591 2978 2328 3040 
Q 2066 3103 1784 3103 
Q 1356 3103 1142 2972 
Q 928 2841 928 2578 
Q 928 2378 1081 2264 
Q 1234 2150 1697 2047 
L 1894 2003 
Q 2506 1872 2764 1633 
Q 3022 1394 3022 966 
Q 3022 478 2636 193 
Q 2250 -91 1575 -91 
Q 1294 -91 989 -36 
Q 684 19 347 128 
L 347 722 
Q 666 556 975 473 
Q 1284 391 1588 391 
Q 1994 391 2212 530 
Q 2431 669 2431 922 
Q 2431 1156 2273 1281 
Q 2116 1406 1581 1522 
L 1381 1569 
Q 847 1681 609 1914 
Q 372 2147 372 2553 
Q 372 3047 722 3315 
Q 1072 3584 1716 3584 
Q 2034 3584 2315 3537 
Q 2597 3491 2834 3397 
z
" id="DejaVuSans-73" transform="scale(0.015625)"/>
       <path d="M 544 1381 
L 544 3500 
L 1119 3500 
L 1119 1403 
Q 1119 906 1312 657 
Q 1506 409 1894 409 
Q 2359 409 2629 706 
Q 2900 1003 2900 1516 
L 2900 3500 
L 3475 3500 
L 3475 0 
L 2900 0 
L 2900 538 
Q 2691 219 2414 64 
Q 2138 -91 1772 -91 
Q 1169 -91 856 284 
Q 544 659 544 1381 
z
M 1991 3584 
L 1991 3584 
z
" id="DejaVuSans-75" transform="scale(0.015625)"/>
       <path d="M 2631 2963 
Q 2534 3019 2420 3045 
Q 2306 3072 2169 3072 
Q 1681 3072 1420 2755 
Q 1159 2438 1159 1844 
L 1159 0 
L 581 0 
L 581 3500 
L 1159 3500 
L 1159 2956 
Q 1341 3275 1631 3429 
Q 1922 3584 2338 3584 
Q 2397 3584 2469 3576 
Q 2541 3569 2628 3553 
L 2631 2963 
z
" id="DejaVuSans-72" transform="scale(0.015625)"/>
       <path d="M 3328 2828 
Q 3544 3216 3844 3400 
Q 4144 3584 4550 3584 
Q 5097 3584 5394 3201 
Q 5691 2819 5691 2113 
L 5691 0 
L 5113 0 
L 5113 2094 
Q 5113 2597 4934 2840 
Q 4756 3084 4391 3084 
Q 3944 3084 3684 2787 
Q 3425 2491 3425 1978 
L 3425 0 
L 2847 0 
L 2847 2094 
Q 2847 2600 2669 2842 
Q 2491 3084 2119 3084 
Q 1678 3084 1418 2786 
Q 1159 2488 1159 1978 
L 1159 0 
L 581 0 
L 581 3500 
L 1159 3500 
L 1159 2956 
Q 1356 3278 1631 3431 
Q 1906 3584 2284 3584 
Q 2666 3584 2933 3390 
Q 3200 3197 3328 2828 
z
" id="DejaVuSans-6d" transform="scale(0.015625)"/>
       <path d="M 3513 2113 
L 3513 0 
L 2938 0 
L 2938 2094 
Q 2938 2591 2744 2837 
Q 2550 3084 2163 3084 
Q 1697 3084 1428 2787 
Q 1159 2491 1159 1978 
L 1159 0 
L 581 0 
L 581 3500 
L 1159 3500 
L 1159 2956 
Q 1366 3272 1645 3428 
Q 1925 3584 2291 3584 
Q 2894 3584 3203 3211 
Q 3513 2838 3513 2113 
z
" id="DejaVuSans-6e" transform="scale(0.015625)"/>
       <path d="M 1172 4494 
L 1172 3500 
L 2356 3500 
L 2356 3053 
L 1172 3053 
L 1172 1153 
Q 1172 725 1289 603 
Q 1406 481 1766 481 
L 2356 481 
L 2356 0 
L 1766 0 
Q 1100 0 847 248 
Q 594 497 594 1153 
L 594 3053 
L 172 3053 
L 172 3500 
L 594 3500 
L 594 4494 
L 1172 4494 
z
" id="DejaVuSans-74" transform="scale(0.015625)"/>
      </defs>
      <use xlink:href="#DejaVuSans-4d"/>
      <use x="86.279297" xlink:href="#DejaVuSans-65"/>
      <use x="147.802734" xlink:href="#DejaVuSans-61"/>
      <use x="209.082031" xlink:href="#DejaVuSans-73"/>
      <use x="261.181641" xlink:href="#DejaVuSans-75"/>
      <use x="324.560547" xlink:href="#DejaVuSans-72"/>
      <use x="363.423828" xlink:href="#DejaVuSans-65"/>
      <use x="424.947266" xlink:href="#DejaVuSans-6d"/>
      <use x="522.359375" xlink:href="#DejaVuSans-65"/>
      <use x="583.882812" xlink:href="#DejaVuSans-6e"/>
      <use x="647.261719" xlink:href="#DejaVuSans-74"/>
     </g>
    </g>
   </g>
   <g id="matplotlib.axis_2">
    <g id="ytick_1">
     <g id="line2d_13">
      <path clip-path="url(#pae002810cb)" d="M 180 628.523077 
L 1296 628.523077 
" style="fill:none;stroke:#ffffff;stroke-linecap:square;stroke-width:0.8;"/>
     </g>
     <g id="line2d_14">
      <defs>
       <path d="M 0 0 
L -3.5 0 
" id="m624c9e7927" style="stroke:#555555;stroke-width:0.8;"/>
      </defs>
      <g>
       <use style="fill:#555555;stroke:#555555;stroke-width:0.8;" x="180" xlink:href="#m624c9e7927" y="628.523077"/>
      </g>
     </g>
     <g id="text_8">
      <!-- −95 -->
      <g style="fill:#555555;" transform="translate(151.895312 632.322296)scale(0.1 -0.1)">
       <defs>
        <path d="M 678 2272 
L 4684 2272 
L 4684 1741 
L 678 1741 
L 678 2272 
z
" id="DejaVuSans-2212" transform="scale(0.015625)"/>
        <path d="M 703 97 
L 703 672 
Q 941 559 1184 500 
Q 1428 441 1663 441 
Q 2288 441 2617 861 
Q 2947 1281 2994 2138 
Q 2813 1869 2534 1725 
Q 2256 1581 1919 1581 
Q 1219 1581 811 2004 
Q 403 2428 403 3163 
Q 403 3881 828 4315 
Q 1253 4750 1959 4750 
Q 2769 4750 3195 4129 
Q 3622 3509 3622 2328 
Q 3622 1225 3098 567 
Q 2575 -91 1691 -91 
Q 1453 -91 1209 -44 
Q 966 3 703 97 
z
M 1959 2075 
Q 2384 2075 2632 2365 
Q 2881 2656 2881 3163 
Q 2881 3666 2632 3958 
Q 2384 4250 1959 4250 
Q 1534 4250 1286 3958 
Q 1038 3666 1038 3163 
Q 1038 2656 1286 2365 
Q 1534 2075 1959 2075 
z
" id="DejaVuSans-39" transform="scale(0.015625)"/>
       </defs>
       <use xlink:href="#DejaVuSans-2212"/>
       <use x="83.789062" xlink:href="#DejaVuSans-39"/>
       <use x="147.412109" xlink:href="#DejaVuSans-35"/>
      </g>
     </g>
    </g>
    <g id="ytick_2">
     <g id="line2d_15">
      <path clip-path="url(#pae002810cb)" d="M 180 563.907692 
L 1296 563.907692 
" style="fill:none;stroke:#ffffff;stroke-linecap:square;stroke-width:0.8;"/>
     </g>
     <g id="line2d_16">
      <g>
       <use style="fill:#555555;stroke:#555555;stroke-width:0.8;" x="180" xlink:href="#m624c9e7927" y="563.907692"/>
      </g>
     </g>
     <g id="text_9">
      <!-- −90 -->
      <g style="fill:#555555;" transform="translate(151.895312 567.706911)scale(0.1 -0.1)">
       <use xlink:href="#DejaVuSans-2212"/>
       <use x="83.789062" xlink:href="#DejaVuSans-39"/>
       <use x="147.412109" xlink:href="#DejaVuSans-30"/>
      </g>
     </g>
    </g>
    <g id="ytick_3">
     <g id="line2d_17">
      <path clip-path="url(#pae002810cb)" d="M 180 499.292308 
L 1296 499.292308 
" style="fill:none;stroke:#ffffff;stroke-linecap:square;stroke-width:0.8;"/>
     </g>
     <g id="line2d_18">
      <g>
       <use style="fill:#555555;stroke:#555555;stroke-width:0.8;" x="180" xlink:href="#m624c9e7927" y="499.292308"/>
      </g>
     </g>
     <g id="text_10">
      <!-- −85 -->
      <g style="fill:#555555;" transform="translate(151.895312 503.091526)scale(0.1 -0.1)">
       <defs>
        <path d="M 2034 2216 
Q 1584 2216 1326 1975 
Q 1069 1734 1069 1313 
Q 1069 891 1326 650 
Q 1584 409 2034 409 
Q 2484 409 2743 651 
Q 3003 894 3003 1313 
Q 3003 1734 2745 1975 
Q 2488 2216 2034 2216 
z
M 1403 2484 
Q 997 2584 770 2862 
Q 544 3141 544 3541 
Q 544 4100 942 4425 
Q 1341 4750 2034 4750 
Q 2731 4750 3128 4425 
Q 3525 4100 3525 3541 
Q 3525 3141 3298 2862 
Q 3072 2584 2669 2484 
Q 3125 2378 3379 2068 
Q 3634 1759 3634 1313 
Q 3634 634 3220 271 
Q 2806 -91 2034 -91 
Q 1263 -91 848 271 
Q 434 634 434 1313 
Q 434 1759 690 2068 
Q 947 2378 1403 2484 
z
M 1172 3481 
Q 1172 3119 1398 2916 
Q 1625 2713 2034 2713 
Q 2441 2713 2670 2916 
Q 2900 3119 2900 3481 
Q 2900 3844 2670 4047 
Q 2441 4250 2034 4250 
Q 1625 4250 1398 4047 
Q 1172 3844 1172 3481 
z
" id="DejaVuSans-38" transform="scale(0.015625)"/>
       </defs>
       <use xlink:href="#DejaVuSans-2212"/>
       <use x="83.789062" xlink:href="#DejaVuSans-38"/>
       <use x="147.412109" xlink:href="#DejaVuSans-35"/>
      </g>
     </g>
    </g>
    <g id="ytick_4">
     <g id="line2d_19">
      <path clip-path="url(#pae002810cb)" d="M 180 434.676923 
L 1296 434.676923 
" style="fill:none;stroke:#ffffff;stroke-linecap:square;stroke-width:0.8;"/>
     </g>
     <g id="line2d_20">
      <g>
       <use style="fill:#555555;stroke:#555555;stroke-width:0.8;" x="180" xlink:href="#m624c9e7927" y="434.676923"/>
      </g>
     </g>
     <g id="text_11">
      <!-- −80 -->
      <g style="fill:#555555;" transform="translate(151.895312 438.476142)scale(0.1 -0.1)">
       <use xlink:href="#DejaVuSans-2212"/>
       <use x="83.789062" xlink:href="#DejaVuSans-38"/>
       <use x="147.412109" xlink:href="#DejaVuSans-30"/>
      </g>
     </g>
    </g>
    <g id="ytick_5">
     <g id="line2d_21">
      <path clip-path="url(#pae002810cb)" d="M 180 370.061538 
L 1296 370.061538 
" style="fill:none;stroke:#ffffff;stroke-linecap:square;stroke-width:0.8;"/>
     </g>
     <g id="line2d_22">
      <g>
       <use style="fill:#555555;stroke:#555555;stroke-width:0.8;" x="180" xlink:href="#m624c9e7927" y="370.061538"/>
      </g>
     </g>
     <g id="text_12">
      <!-- −75 -->
      <g style="fill:#555555;" transform="translate(151.895312 373.860757)scale(0.1 -0.1)">
       <defs>
        <path d="M 525 4666 
L 3525 4666 
L 3525 4397 
L 1831 0 
L 1172 0 
L 2766 4134 
L 525 4134 
L 525 4666 
z
" id="DejaVuSans-37" transform="scale(0.015625)"/>
       </defs>
       <use xlink:href="#DejaVuSans-2212"/>
       <use x="83.789062" xlink:href="#DejaVuSans-37"/>
       <use x="147.412109" xlink:href="#DejaVuSans-35"/>
      </g>
     </g>
    </g>
    <g id="ytick_6">
     <g id="line2d_23">
      <path clip-path="url(#pae002810cb)" d="M 180 305.446154 
L 1296 305.446154 
" style="fill:none;stroke:#ffffff;stroke-linecap:square;stroke-width:0.8;"/>
     </g>
     <g id="line2d_24">
      <g>
       <use style="fill:#555555;stroke:#555555;stroke-width:0.8;" x="180" xlink:href="#m624c9e7927" y="305.446154"/>
      </g>
     </g>
     <g id="text_13">
      <!-- −70 -->
      <g style="fill:#555555;" transform="translate(151.895312 309.245373)scale(0.1 -0.1)">
       <use xlink:href="#DejaVuSans-2212"/>
       <use x="83.789062" xlink:href="#DejaVuSans-37"/>
       <use x="147.412109" xlink:href="#DejaVuSans-30"/>
      </g>
     </g>
    </g>
    <g id="ytick_7">
     <g id="line2d_25">
      <path clip-path="url(#pae002810cb)" d="M 180 240.830769 
L 1296 240.830769 
" style="fill:none;stroke:#ffffff;stroke-linecap:square;stroke-width:0.8;"/>
     </g>
     <g id="line2d_26">
      <g>
       <use style="fill:#555555;stroke:#555555;stroke-width:0.8;" x="180" xlink:href="#m624c9e7927" y="240.830769"/>
      </g>
     </g>
     <g id="text_14">
      <!-- −65 -->
      <g style="fill:#555555;" transform="translate(151.895312 244.629988)scale(0.1 -0.1)">
       <defs>
        <path d="M 2113 2584 
Q 1688 2584 1439 2293 
Q 1191 2003 1191 1497 
Q 1191 994 1439 701 
Q 1688 409 2113 409 
Q 2538 409 2786 701 
Q 3034 994 3034 1497 
Q 3034 2003 2786 2293 
Q 2538 2584 2113 2584 
z
M 3366 4563 
L 3366 3988 
Q 3128 4100 2886 4159 
Q 2644 4219 2406 4219 
Q 1781 4219 1451 3797 
Q 1122 3375 1075 2522 
Q 1259 2794 1537 2939 
Q 1816 3084 2150 3084 
Q 2853 3084 3261 2657 
Q 3669 2231 3669 1497 
Q 3669 778 3244 343 
Q 2819 -91 2113 -91 
Q 1303 -91 875 529 
Q 447 1150 447 2328 
Q 447 3434 972 4092 
Q 1497 4750 2381 4750 
Q 2619 4750 2861 4703 
Q 3103 4656 3366 4563 
z
" id="DejaVuSans-36" transform="scale(0.015625)"/>
       </defs>
       <use xlink:href="#DejaVuSans-2212"/>
       <use x="83.789062" xlink:href="#DejaVuSans-36"/>
       <use x="147.412109" xlink:href="#DejaVuSans-35"/>
      </g>
     </g>
    </g>
    <g id="ytick_8">
     <g id="line2d_27">
      <path clip-path="url(#pae002810cb)" d="M 180 176.215385 
L 1296 176.215385 
" style="fill:none;stroke:#ffffff;stroke-linecap:square;stroke-width:0.8;"/>
     </g>
     <g id="line2d_28">
      <g>
       <use style="fill:#555555;stroke:#555555;stroke-width:0.8;" x="180" xlink:href="#m624c9e7927" y="176.215385"/>
      </g>
     </g>
     <g id="text_15">
      <!-- −60 -->
      <g style="fill:#555555;" transform="translate(151.895312 180.014603)scale(0.1 -0.1)">
       <use xlink:href="#DejaVuSans-2212"/>
       <use x="83.789062" xlink:href="#DejaVuSans-36"/>
       <use x="147.412109" xlink:href="#DejaVuSans-30"/>
      </g>
     </g>
    </g>
    <g id="ytick_9">
     <g id="line2d_29">
      <path clip-path="url(#pae002810cb)" d="M 180 111.6 
L 1296 111.6 
" style="fill:none;stroke:#ffffff;stroke-linecap:square;stroke-width:0.8;"/>
     </g>
     <g id="line2d_30">
      <g>
       <use style="fill:#555555;stroke:#555555;stroke-width:0.8;" x="180" xlink:href="#m624c9e7927" y="111.6"/>
      </g>
     </g>
     <g id="text_16">
      <!-- −55 -->
      <g style="fill:#555555;" transform="translate(151.895312 115.399219)scale(0.1 -0.1)">
       <use xlink:href="#DejaVuSans-2212"/>
       <use x="83.789062" xlink:href="#DejaVuSans-35"/>
       <use x="147.412109" xlink:href="#DejaVuSans-35"/>
      </g>
     </g>
    </g>
    <g id="text_17">
     <!-- RSSI value (dBm) -->
     <g style="fill:#555555;" transform="translate(145.399687 415.812187)rotate(-90)scale(0.12 -0.12)">
      <defs>
       <path d="M 2841 2188 
Q 3044 2119 3236 1894 
Q 3428 1669 3622 1275 
L 4263 0 
L 3584 0 
L 2988 1197 
Q 2756 1666 2539 1819 
Q 2322 1972 1947 1972 
L 1259 1972 
L 1259 0 
L 628 0 
L 628 4666 
L 2053 4666 
Q 2853 4666 3247 4331 
Q 3641 3997 3641 3322 
Q 3641 2881 3436 2590 
Q 3231 2300 2841 2188 
z
M 1259 4147 
L 1259 2491 
L 2053 2491 
Q 2509 2491 2742 2702 
Q 2975 2913 2975 3322 
Q 2975 3731 2742 3939 
Q 2509 4147 2053 4147 
L 1259 4147 
z
" id="DejaVuSans-52" transform="scale(0.015625)"/>
       <path d="M 3425 4513 
L 3425 3897 
Q 3066 4069 2747 4153 
Q 2428 4238 2131 4238 
Q 1616 4238 1336 4038 
Q 1056 3838 1056 3469 
Q 1056 3159 1242 3001 
Q 1428 2844 1947 2747 
L 2328 2669 
Q 3034 2534 3370 2195 
Q 3706 1856 3706 1288 
Q 3706 609 3251 259 
Q 2797 -91 1919 -91 
Q 1588 -91 1214 -16 
Q 841 59 441 206 
L 441 856 
Q 825 641 1194 531 
Q 1563 422 1919 422 
Q 2459 422 2753 634 
Q 3047 847 3047 1241 
Q 3047 1584 2836 1778 
Q 2625 1972 2144 2069 
L 1759 2144 
Q 1053 2284 737 2584 
Q 422 2884 422 3419 
Q 422 4038 858 4394 
Q 1294 4750 2059 4750 
Q 2388 4750 2728 4690 
Q 3069 4631 3425 4513 
z
" id="DejaVuSans-53" transform="scale(0.015625)"/>
       <path d="M 628 4666 
L 1259 4666 
L 1259 0 
L 628 0 
L 628 4666 
z
" id="DejaVuSans-49" transform="scale(0.015625)"/>
       <path id="DejaVuSans-20" transform="scale(0.015625)"/>
       <path d="M 191 3500 
L 800 3500 
L 1894 563 
L 2988 3500 
L 3597 3500 
L 2284 0 
L 1503 0 
L 191 3500 
z
" id="DejaVuSans-76" transform="scale(0.015625)"/>
       <path d="M 603 4863 
L 1178 4863 
L 1178 0 
L 603 0 
L 603 4863 
z
" id="DejaVuSans-6c" transform="scale(0.015625)"/>
       <path d="M 1984 4856 
Q 1566 4138 1362 3434 
Q 1159 2731 1159 2009 
Q 1159 1288 1364 580 
Q 1569 -128 1984 -844 
L 1484 -844 
Q 1016 -109 783 600 
Q 550 1309 550 2009 
Q 550 2706 781 3412 
Q 1013 4119 1484 4856 
L 1984 4856 
z
" id="DejaVuSans-28" transform="scale(0.015625)"/>
       <path d="M 2906 2969 
L 2906 4863 
L 3481 4863 
L 3481 0 
L 2906 0 
L 2906 525 
Q 2725 213 2448 61 
Q 2172 -91 1784 -91 
Q 1150 -91 751 415 
Q 353 922 353 1747 
Q 353 2572 751 3078 
Q 1150 3584 1784 3584 
Q 2172 3584 2448 3432 
Q 2725 3281 2906 2969 
z
M 947 1747 
Q 947 1113 1208 752 
Q 1469 391 1925 391 
Q 2381 391 2643 752 
Q 2906 1113 2906 1747 
Q 2906 2381 2643 2742 
Q 2381 3103 1925 3103 
Q 1469 3103 1208 2742 
Q 947 2381 947 1747 
z
" id="DejaVuSans-64" transform="scale(0.015625)"/>
       <path d="M 1259 2228 
L 1259 519 
L 2272 519 
Q 2781 519 3026 730 
Q 3272 941 3272 1375 
Q 3272 1813 3026 2020 
Q 2781 2228 2272 2228 
L 1259 2228 
z
M 1259 4147 
L 1259 2741 
L 2194 2741 
Q 2656 2741 2882 2914 
Q 3109 3088 3109 3444 
Q 3109 3797 2882 3972 
Q 2656 4147 2194 4147 
L 1259 4147 
z
M 628 4666 
L 2241 4666 
Q 2963 4666 3353 4366 
Q 3744 4066 3744 3513 
Q 3744 3084 3544 2831 
Q 3344 2578 2956 2516 
Q 3422 2416 3680 2098 
Q 3938 1781 3938 1306 
Q 3938 681 3513 340 
Q 3088 0 2303 0 
L 628 0 
L 628 4666 
z
" id="DejaVuSans-42" transform="scale(0.015625)"/>
       <path d="M 513 4856 
L 1013 4856 
Q 1481 4119 1714 3412 
Q 1947 2706 1947 2009 
Q 1947 1309 1714 600 
Q 1481 -109 1013 -844 
L 513 -844 
Q 928 -128 1133 580 
Q 1338 1288 1338 2009 
Q 1338 2731 1133 3434 
Q 928 4138 513 4856 
z
" id="DejaVuSans-29" transform="scale(0.015625)"/>
      </defs>
      <use xlink:href="#DejaVuSans-52"/>
      <use x="69.482422" xlink:href="#DejaVuSans-53"/>
      <use x="132.958984" xlink:href="#DejaVuSans-53"/>
      <use x="196.435547" xlink:href="#DejaVuSans-49"/>
      <use x="225.927734" xlink:href="#DejaVuSans-20"/>
      <use x="257.714844" xlink:href="#DejaVuSans-76"/>
      <use x="316.894531" xlink:href="#DejaVuSans-61"/>
      <use x="378.173828" xlink:href="#DejaVuSans-6c"/>
      <use x="405.957031" xlink:href="#DejaVuSans-75"/>
      <use x="469.335938" xlink:href="#DejaVuSans-65"/>
      <use x="530.859375" xlink:href="#DejaVuSans-20"/>
      <use x="562.646484" xlink:href="#DejaVuSans-28"/>
      <use x="601.660156" xlink:href="#DejaVuSans-64"/>
      <use x="665.136719" xlink:href="#DejaVuSans-42"/>
      <use x="733.740234" xlink:href="#DejaVuSans-6d"/>
      <use x="831.152344" xlink:href="#DejaVuSans-29"/>
     </g>
    </g>
   </g>
   <g id="line2d_31">
    <path clip-path="url(#pae002810cb)" d="M 230.727273 602.676923 
L 234.457219 499.292308 
L 238.187166 602.676923 
L 245.647059 602.676923 
L 249.377005 615.6 
L 253.106952 434.676923 
L 256.836898 589.753846 
L 260.566845 589.753846 
L 264.296791 602.676923 
L 268.026738 576.830769 
L 271.756684 615.6 
L 275.486631 589.753846 
L 279.216578 615.6 
L 282.946524 576.830769 
L 286.676471 602.676923 
L 290.406417 576.830769 
L 294.136364 602.676923 
L 301.596257 602.676923 
L 305.326203 589.753846 
L 309.05615 408.830769 
L 312.786096 563.907692 
L 320.245989 589.753846 
L 327.705882 563.907692 
L 331.435829 576.830769 
L 335.165775 576.830769 
L 338.895722 589.753846 
L 342.625668 563.907692 
L 346.355615 576.830769 
L 350.085561 525.138462 
L 353.815508 589.753846 
L 357.545455 576.830769 
L 361.275401 589.753846 
L 365.005348 563.907692 
L 368.735294 589.753846 
L 372.465241 563.907692 
L 383.65508 563.907692 
L 387.385027 512.215385 
L 391.114973 576.830769 
L 394.84492 589.753846 
L 398.574866 589.753846 
L 406.034759 563.907692 
L 409.764706 525.138462 
L 413.494652 563.907692 
L 417.224599 589.753846 
L 420.954545 563.907692 
L 424.684492 589.753846 
L 428.414439 576.830769 
L 435.874332 576.830769 
L 439.604278 602.676923 
L 443.334225 576.830769 
L 447.064171 576.830769 
L 454.524064 602.676923 
L 458.254011 563.907692 
L 461.983957 576.830769 
L 469.44385 576.830769 
L 473.173797 563.907692 
L 476.903743 589.753846 
L 480.63369 550.984615 
L 484.363636 563.907692 
L 488.093583 563.907692 
L 495.553476 589.753846 
L 499.283422 150.369231 
L 510.473262 111.6 
L 514.203209 124.523077 
L 517.933155 576.830769 
L 521.663102 576.830769 
L 525.393048 563.907692 
L 529.122995 563.907692 
L 532.852941 576.830769 
L 540.312834 576.830769 
L 544.042781 563.907692 
L 547.772727 576.830769 
L 551.502674 563.907692 
L 555.23262 576.830769 
L 566.42246 576.830769 
L 570.152406 563.907692 
L 573.882353 370.061538 
L 577.612299 576.830769 
L 581.342246 576.830769 
L 585.072193 563.907692 
L 588.802139 576.830769 
L 592.532086 563.907692 
L 596.262032 563.907692 
L 599.991979 576.830769 
L 603.721925 576.830769 
L 607.451872 563.907692 
L 611.181818 576.830769 
L 614.911765 563.907692 
L 618.641711 486.369231 
L 622.371658 563.907692 
L 626.101604 563.907692 
L 629.831551 576.830769 
L 633.561497 576.830769 
L 637.291444 434.676923 
L 641.02139 576.830769 
L 644.751337 563.907692 
L 652.21123 563.907692 
L 655.941176 576.830769 
L 659.671123 563.907692 
L 663.40107 576.830769 
L 667.131016 563.907692 
L 670.860963 576.830769 
L 678.320856 576.830769 
L 682.050802 563.907692 
L 685.780749 576.830769 
L 693.240642 550.984615 
L 696.970588 576.830769 
L 708.160428 576.830769 
L 711.890374 563.907692 
L 715.620321 576.830769 
L 734.270053 576.830769 
L 738 563.907692 
L 741.729947 576.830769 
L 745.459893 576.830769 
L 749.18984 538.061538 
L 752.919786 563.907692 
L 756.649733 538.061538 
L 760.379679 576.830769 
L 771.569519 576.830769 
L 775.299465 563.907692 
L 779.029412 563.907692 
L 782.759358 550.984615 
L 786.489305 576.830769 
L 790.219251 576.830769 
L 793.949198 563.907692 
L 797.679144 576.830769 
L 808.868984 576.830769 
L 812.59893 563.907692 
L 816.328877 576.830769 
L 820.058824 563.907692 
L 823.78877 576.830769 
L 827.518717 563.907692 
L 831.248663 434.676923 
L 834.97861 576.830769 
L 838.708556 576.830769 
L 842.438503 563.907692 
L 846.168449 576.830769 
L 853.628342 576.830769 
L 857.358289 563.907692 
L 861.088235 576.830769 
L 864.818182 576.830769 
L 868.548128 563.907692 
L 876.008021 563.907692 
L 879.737968 576.830769 
L 883.467914 576.830769 
L 887.197861 563.907692 
L 890.927807 576.830769 
L 898.387701 576.830769 
L 902.117647 563.907692 
L 905.847594 576.830769 
L 909.57754 576.830769 
L 913.307487 331.292308 
L 917.037433 563.907692 
L 920.76738 576.830769 
L 931.957219 576.830769 
L 935.687166 563.907692 
L 939.417112 563.907692 
L 943.147059 576.830769 
L 950.606952 576.830769 
L 954.336898 563.907692 
L 958.066845 357.138462 
L 961.796791 563.907692 
L 965.526738 563.907692 
L 969.256684 576.830769 
L 980.446524 576.830769 
L 984.176471 563.907692 
L 987.906417 486.369231 
L 991.636364 576.830769 
L 995.36631 550.984615 
L 999.096257 576.830769 
L 1002.826203 576.830769 
L 1006.55615 550.984615 
L 1010.286096 550.984615 
L 1014.016043 576.830769 
L 1017.745989 576.830769 
L 1021.475936 550.984615 
L 1025.205882 563.907692 
L 1032.665775 563.907692 
L 1036.395722 576.830769 
L 1040.125668 576.830769 
L 1043.855615 563.907692 
L 1051.315508 563.907692 
L 1055.045455 357.138462 
L 1058.775401 576.830769 
L 1077.425134 576.830769 
L 1081.15508 563.907692 
L 1084.885027 563.907692 
L 1088.614973 576.830769 
L 1092.34492 576.830769 
L 1096.074866 395.907692 
L 1099.804813 563.907692 
L 1103.534759 563.907692 
L 1107.264706 576.830769 
L 1114.724599 576.830769 
L 1118.454545 563.907692 
L 1125.914439 589.753846 
L 1129.644385 227.907692 
L 1133.374332 279.6 
L 1137.104278 576.830769 
L 1144.564171 576.830769 
L 1148.294118 486.369231 
L 1152.024064 576.830769 
L 1159.483957 576.830769 
L 1163.213904 563.907692 
L 1166.94385 576.830769 
L 1170.673797 202.061538 
L 1174.403743 202.061538 
L 1178.13369 214.984615 
L 1181.863636 563.907692 
L 1185.593583 563.907692 
L 1189.323529 253.753846 
L 1193.053476 253.753846 
L 1196.783422 563.907692 
L 1200.513369 576.830769 
L 1204.243316 563.907692 
L 1207.973262 563.907692 
L 1215.433155 589.753846 
L 1219.163102 576.830769 
L 1222.893048 576.830769 
L 1226.622995 525.138462 
L 1230.352941 525.138462 
L 1234.082888 576.830769 
L 1237.812834 473.446154 
L 1241.542781 563.907692 
L 1241.542781 563.907692 
" style="fill:none;stroke:#008000;stroke-linecap:square;stroke-opacity:0.4;stroke-width:1.5;"/>
   </g>
   <g id="line2d_32">
    <path clip-path="url(#pae002810cb)" d="M 230.727273 563.907692 
L 264.296791 563.907692 
L 268.026738 576.830769 
L 271.756684 563.907692 
L 286.676471 563.907692 
L 290.406417 576.830769 
L 294.136364 576.830769 
L 297.86631 589.753846 
L 309.05615 589.753846 
L 312.786096 576.830769 
L 342.625668 576.830769 
L 346.355615 589.753846 
L 350.085561 576.830769 
L 361.275401 576.830769 
L 365.005348 563.907692 
L 402.304813 563.907692 
L 406.034759 550.984615 
L 420.954545 550.984615 
L 424.684492 576.830769 
L 428.414439 550.984615 
L 439.604278 550.984615 
L 443.334225 563.907692 
L 499.283422 563.907692 
L 503.013369 576.830769 
L 506.743316 538.061538 
L 510.473262 538.061538 
L 517.933155 512.215385 
L 521.663102 563.907692 
L 577.612299 563.907692 
L 581.342246 576.830769 
L 585.072193 563.907692 
L 637.291444 563.907692 
L 641.02139 550.984615 
L 655.941176 550.984615 
L 659.671123 576.830769 
L 663.40107 550.984615 
L 689.510695 550.984615 
L 693.240642 563.907692 
L 734.270053 563.907692 
L 738 576.830769 
L 741.729947 563.907692 
L 812.59893 563.907692 
L 816.328877 589.753846 
L 820.058824 563.907692 
L 890.927807 563.907692 
L 894.657754 576.830769 
L 898.387701 563.907692 
L 913.307487 563.907692 
L 917.037433 550.984615 
L 950.606952 550.984615 
L 954.336898 563.907692 
L 958.066845 563.907692 
L 961.796791 550.984615 
L 969.256684 550.984615 
L 972.986631 576.830769 
L 976.716578 550.984615 
L 1028.935829 550.984615 
L 1032.665775 563.907692 
L 1047.585561 563.907692 
L 1051.315508 576.830769 
L 1058.775401 550.984615 
L 1073.695187 550.984615 
L 1077.425134 563.907692 
L 1096.074866 563.907692 
L 1099.804813 550.984615 
L 1122.184492 550.984615 
L 1129.644385 576.830769 
L 1133.374332 550.984615 
L 1137.104278 538.061538 
L 1178.13369 538.061538 
L 1185.593583 512.215385 
L 1189.323529 512.215385 
L 1196.783422 486.369231 
L 1200.513369 563.907692 
L 1204.243316 563.907692 
L 1207.973262 576.830769 
L 1211.703209 563.907692 
L 1245.272727 563.907692 
L 1245.272727 563.907692 
" style="fill:none;stroke:#e24a33;stroke-linecap:square;stroke-width:3;"/>
   </g>
   <g id="line2d_33">
    <path clip-path="url(#pae002810cb)" d="M 230.727273 589.753846 
L 253.106952 589.753846 
L 256.836898 576.830769 
L 312.786096 576.830769 
L 316.516043 563.907692 
L 320.245989 576.830769 
L 323.975936 563.907692 
L 346.355615 563.907692 
L 350.085561 550.984615 
L 353.815508 563.907692 
L 387.385027 563.907692 
L 391.114973 550.984615 
L 409.764706 550.984615 
L 413.494652 538.061538 
L 417.224599 538.061538 
L 420.954545 550.984615 
L 428.414439 550.984615 
L 432.144385 563.907692 
L 450.794118 563.907692 
L 454.524064 576.830769 
L 484.363636 576.830769 
L 488.093583 563.907692 
L 499.283422 563.907692 
L 503.013369 538.061538 
L 506.743316 499.292308 
L 510.473262 473.446154 
L 514.203209 434.676923 
L 517.933155 421.753846 
L 521.663102 563.907692 
L 573.882353 563.907692 
L 577.612299 550.984615 
L 614.911765 550.984615 
L 618.641711 563.907692 
L 622.371658 550.984615 
L 663.40107 550.984615 
L 667.131016 563.907692 
L 670.860963 550.984615 
L 678.320856 550.984615 
L 682.050802 563.907692 
L 838.708556 563.907692 
L 842.438503 550.984615 
L 876.008021 550.984615 
L 879.737968 563.907692 
L 913.307487 563.907692 
L 917.037433 550.984615 
L 954.336898 550.984615 
L 958.066845 563.907692 
L 961.796791 550.984615 
L 999.096257 550.984615 
L 1002.826203 563.907692 
L 1055.045455 563.907692 
L 1058.775401 550.984615 
L 1129.644385 550.984615 
L 1133.374332 525.138462 
L 1137.104278 473.446154 
L 1140.834225 486.369231 
L 1163.213904 486.369231 
L 1166.94385 473.446154 
L 1170.673797 512.215385 
L 1174.403743 525.138462 
L 1178.13369 525.138462 
L 1181.863636 486.369231 
L 1185.593583 473.446154 
L 1196.783422 395.907692 
L 1200.513369 563.907692 
L 1245.272727 563.907692 
L 1245.272727 563.907692 
" style="fill:none;stroke:#348abd;stroke-linecap:square;stroke-width:3;"/>
   </g>
   <g id="patch_3">
    <path d="M 180 640.8 
L 180 86.4 
" style="fill:none;stroke:#ffffff;stroke-linecap:square;stroke-linejoin:miter;"/>
   </g>
   <g id="patch_4">
    <path d="M 1296 640.8 
L 1296 86.4 
" style="fill:none;stroke:#ffffff;stroke-linecap:square;stroke-linejoin:miter;"/>
   </g>
   <g id="patch_5">
    <path d="M 180 640.8 
L 1296 640.8 
" style="fill:none;stroke:#ffffff;stroke-linecap:square;stroke-linejoin:miter;"/>
   </g>
   <g id="patch_6">
    <path d="M 180 86.4 
L 1296 86.4 
" style="fill:none;stroke:#ffffff;stroke-linecap:square;stroke-linejoin:miter;"/>
   </g>
   <g id="text_18">
    <!-- Node 2 -->
    <g transform="translate(712.337625 80.4)scale(0.144 -0.144)">
     <defs>
      <path d="M 628 4666 
L 1478 4666 
L 3547 763 
L 3547 4666 
L 4159 4666 
L 4159 0 
L 3309 0 
L 1241 3903 
L 1241 0 
L 628 0 
L 628 4666 
z
" id="DejaVuSans-4e" transform="scale(0.015625)"/>
      <path d="M 1959 3097 
Q 1497 3097 1228 2736 
Q 959 2375 959 1747 
Q 959 1119 1226 758 
Q 1494 397 1959 397 
Q 2419 397 2687 759 
Q 2956 1122 2956 1747 
Q 2956 2369 2687 2733 
Q 2419 3097 1959 3097 
z
M 1959 3584 
Q 2709 3584 3137 3096 
Q 3566 2609 3566 1747 
Q 3566 888 3137 398 
Q 2709 -91 1959 -91 
Q 1206 -91 779 398 
Q 353 888 353 1747 
Q 353 2609 779 3096 
Q 1206 3584 1959 3584 
z
" id="DejaVuSans-6f" transform="scale(0.015625)"/>
     </defs>
     <use xlink:href="#DejaVuSans-4e"/>
     <use x="74.804688" xlink:href="#DejaVuSans-6f"/>
     <use x="135.986328" xlink:href="#DejaVuSans-64"/>
     <use x="199.462891" xlink:href="#DejaVuSans-65"/>
     <use x="260.986328" xlink:href="#DejaVuSans-20"/>
     <use x="292.773438" xlink:href="#DejaVuSans-32"/>
    </g>
   </g>
   <g id="legend_1">
    <g id="patch_7">
     <path d="M 1059.780625 159.248125 
L 1286.2 159.248125 
Q 1289 159.248125 1289 156.448125 
L 1289 96.2 
Q 1289 93.4 1286.2 93.4 
L 1059.780625 93.4 
Q 1056.980625 93.4 1056.980625 96.2 
L 1056.980625 156.448125 
Q 1056.980625 159.248125 1059.780625 159.248125 
z
" style="fill:#e5e5e5;opacity:0.8;stroke:#cccccc;stroke-linejoin:miter;stroke-width:0.5;"/>
    </g>
    <g id="line2d_34">
     <path d="M 1062.580625 104.737812 
L 1090.580625 104.737812 
" style="fill:none;stroke:#008000;stroke-linecap:square;stroke-opacity:0.4;stroke-width:1.5;"/>
    </g>
    <g id="line2d_35"/>
    <g id="text_19">
     <!-- Current RSSI value -->
     <g transform="translate(1101.780625 109.637812)scale(0.14 -0.14)">
      <defs>
       <path d="M 4122 4306 
L 4122 3641 
Q 3803 3938 3442 4084 
Q 3081 4231 2675 4231 
Q 1875 4231 1450 3742 
Q 1025 3253 1025 2328 
Q 1025 1406 1450 917 
Q 1875 428 2675 428 
Q 3081 428 3442 575 
Q 3803 722 4122 1019 
L 4122 359 
Q 3791 134 3420 21 
Q 3050 -91 2638 -91 
Q 1578 -91 968 557 
Q 359 1206 359 2328 
Q 359 3453 968 4101 
Q 1578 4750 2638 4750 
Q 3056 4750 3426 4639 
Q 3797 4528 4122 4306 
z
" id="DejaVuSans-43" transform="scale(0.015625)"/>
      </defs>
      <use xlink:href="#DejaVuSans-43"/>
      <use x="69.824219" xlink:href="#DejaVuSans-75"/>
      <use x="133.203125" xlink:href="#DejaVuSans-72"/>
      <use x="172.566406" xlink:href="#DejaVuSans-72"/>
      <use x="211.429688" xlink:href="#DejaVuSans-65"/>
      <use x="272.953125" xlink:href="#DejaVuSans-6e"/>
      <use x="336.332031" xlink:href="#DejaVuSans-74"/>
      <use x="375.541016" xlink:href="#DejaVuSans-20"/>
      <use x="407.328125" xlink:href="#DejaVuSans-52"/>
      <use x="476.810547" xlink:href="#DejaVuSans-53"/>
      <use x="540.287109" xlink:href="#DejaVuSans-53"/>
      <use x="603.763672" xlink:href="#DejaVuSans-49"/>
      <use x="633.255859" xlink:href="#DejaVuSans-20"/>
      <use x="665.042969" xlink:href="#DejaVuSans-76"/>
      <use x="724.222656" xlink:href="#DejaVuSans-61"/>
      <use x="785.501953" xlink:href="#DejaVuSans-6c"/>
      <use x="813.285156" xlink:href="#DejaVuSans-75"/>
      <use x="876.664062" xlink:href="#DejaVuSans-65"/>
     </g>
    </g>
    <g id="line2d_36">
     <path d="M 1062.580625 125.287187 
L 1090.580625 125.287187 
" style="fill:none;stroke:#e24a33;stroke-linecap:square;stroke-width:3;"/>
    </g>
    <g id="line2d_37"/>
    <g id="text_20">
     <!-- Moving average RSSI (60) -->
     <g transform="translate(1101.780625 130.187187)scale(0.14 -0.14)">
      <defs>
       <path d="M 603 3500 
L 1178 3500 
L 1178 0 
L 603 0 
L 603 3500 
z
M 603 4863 
L 1178 4863 
L 1178 4134 
L 603 4134 
L 603 4863 
z
" id="DejaVuSans-69" transform="scale(0.015625)"/>
       <path d="M 2906 1791 
Q 2906 2416 2648 2759 
Q 2391 3103 1925 3103 
Q 1463 3103 1205 2759 
Q 947 2416 947 1791 
Q 947 1169 1205 825 
Q 1463 481 1925 481 
Q 2391 481 2648 825 
Q 2906 1169 2906 1791 
z
M 3481 434 
Q 3481 -459 3084 -895 
Q 2688 -1331 1869 -1331 
Q 1566 -1331 1297 -1286 
Q 1028 -1241 775 -1147 
L 775 -588 
Q 1028 -725 1275 -790 
Q 1522 -856 1778 -856 
Q 2344 -856 2625 -561 
Q 2906 -266 2906 331 
L 2906 616 
Q 2728 306 2450 153 
Q 2172 0 1784 0 
Q 1141 0 747 490 
Q 353 981 353 1791 
Q 353 2603 747 3093 
Q 1141 3584 1784 3584 
Q 2172 3584 2450 3431 
Q 2728 3278 2906 2969 
L 2906 3500 
L 3481 3500 
L 3481 434 
z
" id="DejaVuSans-67" transform="scale(0.015625)"/>
      </defs>
      <use xlink:href="#DejaVuSans-4d"/>
      <use x="86.279297" xlink:href="#DejaVuSans-6f"/>
      <use x="147.460938" xlink:href="#DejaVuSans-76"/>
      <use x="206.640625" xlink:href="#DejaVuSans-69"/>
      <use x="234.423828" xlink:href="#DejaVuSans-6e"/>
      <use x="297.802734" xlink:href="#DejaVuSans-67"/>
      <use x="361.279297" xlink:href="#DejaVuSans-20"/>
      <use x="393.066406" xlink:href="#DejaVuSans-61"/>
      <use x="454.345703" xlink:href="#DejaVuSans-76"/>
      <use x="513.525391" xlink:href="#DejaVuSans-65"/>
      <use x="575.048828" xlink:href="#DejaVuSans-72"/>
      <use x="616.162109" xlink:href="#DejaVuSans-61"/>
      <use x="677.441406" xlink:href="#DejaVuSans-67"/>
      <use x="740.917969" xlink:href="#DejaVuSans-65"/>
      <use x="802.441406" xlink:href="#DejaVuSans-20"/>
      <use x="834.228516" xlink:href="#DejaVuSans-52"/>
      <use x="903.710938" xlink:href="#DejaVuSans-53"/>
      <use x="967.1875" xlink:href="#DejaVuSans-53"/>
      <use x="1030.664062" xlink:href="#DejaVuSans-49"/>
      <use x="1060.15625" xlink:href="#DejaVuSans-20"/>
      <use x="1091.943359" xlink:href="#DejaVuSans-28"/>
      <use x="1130.957031" xlink:href="#DejaVuSans-36"/>
      <use x="1194.580078" xlink:href="#DejaVuSans-30"/>
      <use x="1258.203125" xlink:href="#DejaVuSans-29"/>
     </g>
    </g>
    <g id="line2d_38">
     <path d="M 1062.580625 145.836562 
L 1090.580625 145.836562 
" style="fill:none;stroke:#348abd;stroke-linecap:square;stroke-width:3;"/>
    </g>
    <g id="line2d_39"/>
    <g id="text_21">
     <!-- Moving average RSSI (20) -->
     <g transform="translate(1101.780625 150.736562)scale(0.14 -0.14)">
      <use xlink:href="#DejaVuSans-4d"/>
      <use x="86.279297" xlink:href="#DejaVuSans-6f"/>
      <use x="147.460938" xlink:href="#DejaVuSans-76"/>
      <use x="206.640625" xlink:href="#DejaVuSans-69"/>
      <use x="234.423828" xlink:href="#DejaVuSans-6e"/>
      <use x="297.802734" xlink:href="#DejaVuSans-67"/>
      <use x="361.279297" xlink:href="#DejaVuSans-20"/>
      <use x="393.066406" xlink:href="#DejaVuSans-61"/>
      <use x="454.345703" xlink:href="#DejaVuSans-76"/>
      <use x="513.525391" xlink:href="#DejaVuSans-65"/>
      <use x="575.048828" xlink:href="#DejaVuSans-72"/>
      <use x="616.162109" xlink:href="#DejaVuSans-61"/>
      <use x="677.441406" xlink:href="#DejaVuSans-67"/>
      <use x="740.917969" xlink:href="#DejaVuSans-65"/>
      <use x="802.441406" xlink:href="#DejaVuSans-20"/>
      <use x="834.228516" xlink:href="#DejaVuSans-52"/>
      <use x="903.710938" xlink:href="#DejaVuSans-53"/>
      <use x="967.1875" xlink:href="#DejaVuSans-53"/>
      <use x="1030.664062" xlink:href="#DejaVuSans-49"/>
      <use x="1060.15625" xlink:href="#DejaVuSans-20"/>
      <use x="1091.943359" xlink:href="#DejaVuSans-28"/>
      <use x="1130.957031" xlink:href="#DejaVuSans-32"/>
      <use x="1194.580078" xlink:href="#DejaVuSans-30"/>
      <use x="1258.203125" xlink:href="#DejaVuSans-29"/>
     </g>
    </g>
   </g>
  </g>
 </g>
 <defs>
  <clipPath id="pae002810cb">
   <rect height="554.4" width="1116" x="180" y="86.4"/>
  </clipPath>
 </defs>
</svg>
